<svg version="1.1" viewBox="0 0 150 150" xmlns="http://www.w3.org/2000/svg">
	<g>
		<path d="m105.44 35.973v75.423c0 7.172-2.707 13.342-8.116 18.504-5.41 5.164-13.679 7.746-24.805 7.746-2.591 0-5.17-0.203-7.734-0.61-2.566-0.407-5.563-1.476-8.992-3.207-3.43-1.729-6.415-3.97-8.954-6.718-2.541-2.747-4.7-6.782-6.478-12.102-1.778-5.318-2.667-11.467-2.667-18.438 0-12.676 3.099-22.385 9.297-29.129s15.114-10.115 26.749-10.115c4.165 0 8.483 0.407 12.954 1.219v-19.812l-86.693 13.219v98.047h150v-120.59z" fill="#c91c2c"/>
		<polygon points="105.44 35.973 105.44 10.698 86.691 10.698 86.691 38.734" fill="#c91c2c"/>
		<path d="m105.44 36.107-18.746 2.8164v19.623c-2.2355-0.406-4.4328-0.71081-6.5918-0.91406-2.159-0.20325-4.2808-0.30664-6.3633-0.30664-2.9088 0-5.646 0.21141-8.2148 0.63281-2.5689 0.42141-4.9682 1.0536-7.1973 1.8965-2.2291 0.84288-4.2885 1.8958-6.1777 3.1602-1.8893 1.2644-3.6087 2.7398-5.1582 4.4258s-2.9062 3.5586-4.0684 5.6152c-1.1621 2.0567-2.1295 4.2972-2.9043 6.7246s-1.3568 5.0417-1.7441 7.8398c-0.38738 2.7982-0.58008 5.7802-0.58008 8.9492 0 3.4855 0.22152 6.7665 0.66602 9.8398 0.4445 3.0734 1.111 5.9406 2 8.5996 0.889 2.66 1.8735 4.9985 2.9531 7.0156 1.0796 2.0171 2.2549 3.7124 3.5254 5.0859 1.2695 1.374 2.6502 2.6204 4.1426 3.7402 1.4924 1.1199 3.0975 2.1121 4.8125 2.9766 1.7145 0.8655 3.3197 1.5671 4.8184 2.1016s2.8889 0.90197 4.1719 1.1055c2.564 0.407 5.1434 0.61132 7.7344 0.61132 2.7815 0 5.3842-0.16162 7.8086-0.48437s4.6712-0.80763 6.7383-1.4531 3.9542-1.4517 5.6641-2.4199c1.7098-0.96825 3.2412-2.0977 4.5938-3.3887 1.3522-1.2905 2.5364-2.6441 3.5508-4.0606 1.0144-1.4164 1.8607-2.8954 2.5371-4.4375 0.67643-1.5421 1.1832-3.1468 1.5215-4.8144s0.50781-3.3984 0.50781-5.1914zm-31.092 35.852c2.2865 0.025 4.4581 0.14653 6.5156 0.36328s4.0016 0.52855 5.8301 0.93555v39.9c0 1.401-0.29619 2.6287-0.88672 3.6797-0.59053 1.051-1.4751 1.9261-2.6562 2.627-1.1811 0.70088-2.6579 1.2276-4.4297 1.5781s-3.8387 0.52539-6.2012 0.52539c-1.486 0-2.8612-0.12797-4.125-0.38281-1.2638-0.25485-2.4175-0.63686-3.459-1.1465-1.0415-0.50962-1.9718-1.1458-2.791-1.9102-0.81925-0.76435-1.526-1.6568-2.123-2.6758-0.597-1.0192-1.1206-2.1975-1.5684-3.5352s-0.82064-2.8341-1.1191-4.4902c-0.2985-1.6561-0.52262-3.4726-0.67188-5.4473-0.14925-1.9747-0.22266-4.1091-0.22266-6.4023 0-2.1918 0.09456-4.2184 0.28516-6.0801 0.19059-1.8617 0.4763-3.5579 0.85742-5.0898 0.38112-1.5319 0.85809-2.899 1.4297-4.1016 0.57159-1.2025 1.238-2.2398 2-3.1133 0.762-0.87225 1.6122-1.6367 2.5488-2.291 0.93664-0.65431 1.961-1.1985 3.0723-1.6348 1.1113-0.43625 2.3097-0.76436 3.5957-0.98242 1.286-0.21806 2.6584-0.32642 4.1191-0.32617z" fill="#ffffff"/>
		<path d="m61.012 77.193c-3.048 3.494-4.573 9.619-4.573 18.386 0 9.173 1.194 15.797 3.582 19.874 2.388 4.076 6.554 6.115 12.498 6.115 9.45 0 14.174-2.805 14.174-8.409v-39.901c-3.657-0.814-7.772-1.249-12.345-1.299-5.843-1e-3 -10.288 1.745-13.336 5.234z" fill="#c91c2c"/>
	</g>
</svg>
